<svg xmlns="http://www.w3.org/2000/svg" width="47" height="23" fill="none"><rect width="45" height="21" x="1" y="1" stroke="#80899C" stroke-opacity=".2" stroke-width="2" rx="10.5"/><path fill="#9da5b6" fill-rule="evenodd" d="M34.616 7.222a.937.937 0 0 1 1.252.012l3.69 3.379c.38.347.13.98-.384.976l-1.794-.015v3.677a.75.75 0 0 1-.75.75h-2.858a.75.75 0 0 1-.75-.75v-3.714l-1.805-.015a.562.562 0 0 1-.367-.984l3.766-3.316ZM17.569 16.478V7.801c0-.65-.505-1-1.03-1-.537 0-1.02.34-1.02 1v2.67H14.27V8.16c0-.71-.402-1.02-1-1.02-.587 0-1 .3-1 1.02V9.74H10.52V8.162c0-.711-.402-1.02-.99-1.02-.597 0-1.03.298-1.03 1.02v6.327c0 1.134.299 1.546 1.494 1.546h4.277v-3.803h1.247v4.246h2.05Zm-5.297-2.143h-1.464c-.237 0-.288-.031-.288-.268v-2.649h1.752v2.917Zm15.52-6.328c0 .423-.247.866-.866.866h-7.193c-.618 0-.866-.443-.866-.866 0-.412.237-.865.866-.865h7.193c.629 0 .866.453.866.865Zm-.742 4.864c.619 0 .866-.402.866-.824 0-.412-.237-.825-.866-.825h-.7v-.917c0-.721-.423-1.05-1.041-1.05-.629 0-1.062.319-1.062 1.05v.918h-1.834v-.918c0-.721-.423-1.05-1.04-1.05-.63 0-1.062.319-1.062 1.05v.918h-.701c-.629 0-.866.412-.866.824 0 .422.247.824.866.824h7.44Zm1.103 2.536c0 .432-.258.865-.887.865h-7.873c-.629 0-.886-.432-.886-.865 0-.423.247-.876.886-.876h7.873c.64 0 .887.453.887.876Z" clip-rule="evenodd"/></svg>